<?xml version="1.0" standalone="no"?>
<!DOCTYPE svg PUBLIC "-//W3C//DTD SVG 20010904//EN"
 "http://www.w3.org/TR/2001/REC-SVG-20010904/DTD/svg10.dtd">
<svg version="1.0" xmlns="http://www.w3.org/2000/svg"
 width="200.000000pt" height="200.000000pt" viewBox="0 0 200.000000 200.000000"
 preserveAspectRatio="xMidYMid meet">
<metadata>
Created by potrace 1.11, written by Peter Selinger 2001-2013
</metadata>
<g transform="translate(0.000000,200.000000) scale(0.100000,-0.100000)"
fill="#000000" stroke="none">
<path d="M940 1630 c0 -101 -1 -110 -16 -96 -19 20 0 18 -244 17 -193 -2 -206
-3 -222 -23 -17 -19 -18 -57 -18 -483 l0 -464 26 -20 c25 -20 39 -21 228 -21
166 0 205 3 224 16 l22 15 0 -107 0 -106 68 7 c104 10 149 23 251 72 79 38
108 59 176 127 67 67 90 98 128 176 50 103 77 210 77 310 0 100 -27 207 -77
310 -38 78 -61 109 -128 176 -68 68 -97 89 -176 127 -102 49 -147 62 -251 72
l-68 7 0 -112z m489 -106 c21 -26 21 -37 21 -476 0 -274 -4 -456 -10 -468 -17
-32 -67 -40 -249 -40 -187 0 -218 6 -236 48 -8 18 -18 22 -52 22 l-43 0 0 75
c0 53 4 75 13 75 8 0 12 -19 12 -62 l0 -63 30 0 30 0 3 83 3 82 49 0 c60 0 70
14 70 98 0 46 -4 63 -20 77 -11 10 -20 25 -20 34 0 26 -39 83 -61 88 -18 5
-19 16 -19 211 0 177 2 208 17 224 15 16 35 18 229 18 l213 0 20 -26z m-611
-156 c-4 -10 -39 -13 -133 -13 -94 0 -129 3 -132 13 -4 9 27 12 132 12 105 0
136 -3 133 -12z m0 -80 c-4 -10 -39 -13 -133 -13 -94 0 -129 3 -132 13 -4 9
27 12 132 12 105 0 136 -3 133 -12z m2 -78 c0 -16 -40 -21 -154 -18 -76 2
-111 7 -114 16 -3 9 28 12 132 12 82 0 136 -4 136 -10z m120 -184 c0 -58 -3
-75 -16 -80 -13 -5 -15 -16 -9 -59 4 -28 11 -56 16 -62 18 -18 8 -25 -35 -25
-62 0 -76 17 -76 91 0 45 5 64 19 78 11 11 25 38 31 60 9 36 40 71 62 71 5 0
8 -33 8 -74z m-396 28 c21 -8 21 -43 0 -51 -8 -3 -23 1 -31 10 -13 13 -14 19
-3 31 14 18 13 18 34 10z m14 -321 c2 -15 -2 -23 -12 -23 -10 0 -13 6 -10 15
5 11 -1 15 -20 15 -26 0 -27 -2 -24 -52 3 -47 6 -53 27 -56 20 -3 23 0 18 17
-3 14 0 21 10 21 10 0 13 -9 11 -27 -3 -25 -7 -28 -43 -28 l-40 0 -3 59 c-4
80 0 88 45 84 31 -2 39 -7 41 -25z m97 -48 l0 -70 -40 0 -40 0 -3 73 -3 73 43
-3 43 -3 0 -70z m95 0 l0 -75 -42 0 -43 0 3 75 4 75 39 0 39 0 0 -75z m100 65
c0 -5 -13 -10 -30 -10 -23 0 -30 -4 -30 -20 0 -15 7 -20 25 -20 14 0 25 -6 25
-14 0 -9 -8 -12 -25 -8 -22 4 -25 1 -25 -23 0 -25 3 -27 30 -23 20 3 30 0 30
-9 0 -9 -14 -13 -42 -13 l-43 0 0 75 0 75 43 0 c23 0 42 -4 42 -10z"/>
<path d="M1081 1381 c-34 -22 4 -31 124 -31 120 0 158 9 124 31 -18 11 -230
11 -248 0z"/>
<path d="M1080 1300 c-34 -22 7 -31 131 -28 102 3 124 6 124 18 0 12 -21 15
-120 18 -66 1 -127 -2 -135 -8z"/>
<path d="M1080 1220 c-34 -22 7 -31 131 -28 102 3 124 6 124 18 0 12 -21 15
-120 18 -66 1 -127 -2 -135 -8z"/>
<path d="M1341 1047 c-17 -21 -3 -49 23 -45 15 2 21 10 21 28 0 28 -26 38 -44
17z"/>
<path d="M590 684 c0 -52 1 -55 23 -52 19 3 22 10 25 56 3 50 2 52 -22 52 -25
0 -26 -3 -26 -56z"/>
<path d="M690 685 c0 -48 2 -55 20 -55 18 0 20 7 20 55 0 48 -2 55 -20 55 -18
0 -20 -7 -20 -55z"/>
</g>
</svg>
